HIERARCHY
ROOT Hips
{
  OFFSET 3.13124 94.3669 -3.18751
  CHANNELS  6 Xposition Yposition Zposition Zrotation Xrotation Yrotation
  JOINT LeftUpLeg
  {
    OFFSET 8.64259 1.95398 -2.38835
    CHANNELS 3 Zrotation Xrotation Yrotation
    JOINT LeftLeg
    {
      OFFSET 43.7702 0 0
      CHANNELS 3 Zrotation Xrotation Yrotation
      JOINT LeftFoot
      {
        OFFSET 40.6238 0 0
        CHANNELS 3 Zrotation Xrotation Yrotation
        JOINT LeftToeBase
        {
          OFFSET 12.7242 0 0
          CHANNELS 3 Zrotation Xrotation Yrotation
          End Site
          {
            OFFSET 0 0 0
          }
        }
      }
    }
  }
  JOINT RightUpLeg
  {
    OFFSET -8.2249 1.95398 -2.59336
    CHANNELS 3 Zrotation Xrotation Yrotation
    JOINT RightLeg
    {
      OFFSET 43.5653 0 0
      CHANNELS 3 Zrotation Xrotation Yrotation
      JOINT RightFoot
      {
        OFFSET 40.6238 0 0
        CHANNELS 3 Zrotation Xrotation Yrotation
        JOINT RightToeBase
        {
          OFFSET 12.7242 0 0
          CHANNELS 3 Zrotation Xrotation Yrotation
          End Site
          {
            OFFSET 0 0 0
          }
        }
      }
    }
  }
  JOINT Spine
  {
    OFFSET 0.165834 0.87714 6.61349
    CHANNELS 3 Zrotation Xrotation Yrotation
    JOINT Spine1
    {
      OFFSET 7.38962 1.71661e-005 0
      CHANNELS 3 Zrotation Xrotation Yrotation
      JOINT Spine2
      {
        OFFSET 11.9445 1.14441e-005 0
        CHANNELS 3 Zrotation Xrotation Yrotation
        JOINT Spine3
        {
          OFFSET 14.7254 4.19617e-005 0
          CHANNELS 3 Zrotation Xrotation Yrotation
          JOINT Spine4
          {
            OFFSET 10.9679 0 0
            CHANNELS 3 Zrotation Xrotation Yrotation
            JOINT RightShoulder
            {
              OFFSET 2.46616 -1.6653 3.69651
              CHANNELS 3 Zrotation Xrotation Yrotation
              JOINT RightArm
              {
                OFFSET 13.0012 0 0
                CHANNELS 3 Zrotation Xrotation Yrotation
                JOINT RightForeArm
                {
                  OFFSET 28.7848 1.52588e-005 0
                  CHANNELS 3 Zrotation Xrotation Yrotation
                  JOINT RightHand
                  {
                    OFFSET 26.5688 1.52588e-005 0
                    CHANNELS 3 Zrotation Xrotation Yrotation
                    End Site
                    {
                      OFFSET 0 0 0
                    }
                  }
                }
              }
            }
            JOINT LeftShoulder
            {
              OFFSET 2.38034 -1.29275 -3.75231
              CHANNELS 3 Zrotation Xrotation Yrotation
              JOINT LeftArm
              {
                OFFSET 16.3182 6.10352e-005 0
                CHANNELS 3 Zrotation Xrotation Yrotation
                JOINT LeftForeArm
                {
                  OFFSET 27.0901 0 0
                  CHANNELS 3 Zrotation Xrotation Yrotation
                  JOINT LeftHand
                  {
                    OFFSET 24.5451 1.52588e-005 0
                    CHANNELS 3 Zrotation Xrotation Yrotation
                    End Site
                    {
                      OFFSET 0 0 0
                    }
                  }
                }
              }
            }
            JOINT Neck
            {
              OFFSET 5.0226 -0.0266342 0
              CHANNELS 3 Zrotation Xrotation Yrotation
              JOINT Head
              {
                OFFSET 6.69363 2.86102e-005 0
                CHANNELS 3 Zrotation Xrotation Yrotation
                End Site
                {
                  OFFSET 0 0 0
                }
              }
            }
          }
        }
      }
    }
  }
}
MOTION
Frames:	12
Frame Time:	0.0333333
56.8771 90.3848 -56.9368 -87.6994 -26.2525 -82.5696 -177.478 -5.38504 95.25 -31.0103 18.7662 1.23086 57.8527 3.66926 2.05003 28.7808 3.42304e-006 1.98245e-006 176.475 38.6059 106.216 -43.1448 2.17936 -0.209857 30.0922 3.71858 5.10904 28.7808 1.41232e-005 1.7032e-005 1.19227 4.55809 -87.669 17.7192 3.58843 3.28209 6.04948 3.7293 3.12102 -16.4736 2.43708 4.20788 3.53906 2.43707 4.20787 99.9717 0.225314 -91.3437 5.45119 33.4843 -68.8777 -4.69795 -31.9887 -5.14073 33.1876 -3.06981 -15.1173 -84.1891 -59.0971 88.4336 -9.12911 -19.0506 25.188 26.2054 39.6849 -37.33 17.2243 1.59263 5.31393 47.3569 -3.75069 19.7561 -39.6829 -5.89502 -26.508 
52.7006 92.1539 -54.7095 -90.2425 -24.7143 -84.3116 -177.356 -11.3371 94.5904 -25.5493 21.305 1.30577 43.4267 -1.08126 -1.75319 28.7808 3.42304e-006 1.98245e-006 178.428 31.2692 105.926 -39.6567 8.63722 0.215321 32.5579 0.34958 1.37174 28.7808 1.41232e-005 1.7032e-005 1.02931 4.39526 -87.4864 18.0302 3.2938 3.81529 6.35831 3.4584 3.66682 -16.1468 1.99641 4.62712 3.86592 1.9964 4.62714 100.344 1.11839 -89.9207 5.1033 34.6215 -71.3592 -4.73176 -32.6164 -5.15538 29.3031 -3.26899 -17.0613 -86.3059 -57.3503 85.3176 -6.42327 -19.5678 28.3557 30.5976 43.2916 -40.7632 16.8793 1.66157 5.91256 45.8382 -4.68336 16.2266 -37.0516 -6.0489 -23.6524 
48.8558 93.4225 -52.6127 -92.5307 -22.1205 -85.6766 -177.584 -15.3244 94.1052 -21.9838 24.344 1.42666 28.8144 -12.8449 -15.1744 28.7808 3.42304e-006 1.98245e-006 179.742 24.6343 104.915 -37.6691 3.14667 -0.0727308 35.4267 -0.885656 0.0712219 28.7808 1.41232e-005 1.7032e-005 0.918814 4.27252 -87.4979 18.2625 3.06361 4.07793 6.58921 3.24025 3.93869 -15.9059 1.696 4.81319 4.10674 1.696 4.81317 100.842 2.02792 -88.0141 4.58729 36.3872 -75.0154 -4.71763 -32.3555 -5.14921 23.4851 -1.88182 -13.7746 -87.4938 -56.6791 83.567 -3.53399 -20.2175 31.2468 39.2118 47.8695 -48.0806 13.9008 1.38205 5.86048 47.4048 -4.86842 12.5346 -36.771 -5.53127 -19.8676 
45.7982 94.1803 -50.7508 -93.3574 -19.2203 -84.9626 -177.819 -12.7843 94.9109 -27.4523 26.5713 1.57905 15.704 -19.9326 -28.3449 28.7808 3.42304e-006 1.98245e-006 -179.741 21.0259 105.54 -36.9509 -0.599785 -0.275839 35.5897 -2.03961 -1.01776 28.7808 1.41232e-005 1.7032e-005 0.706654 4.07744 -87.8963 18.6542 2.72968 4.0236 6.9803 2.90396 3.89989 -15.5127 1.3958 4.65629 4.49994 1.39581 4.65627 101.423 2.07174 -85.5606 2.68401 40.1281 -78.5955 -4.77678 -33.4418 -5.17546 21.3968 -1.13983 -10.8071 -88.4917 -55.5663 81.9866 -3.30527 -20.9146 34.9073 48.871 44.8562 -58.936 6.46053 0.969682 9.26533 49.0603 -5.96375 7.50414 -35.5809 -5.48062 -14.8342 
43.1087 94.9523 -48.7993 -94.5336 -17.821 -84.2789 -177.976 -10.2473 96.2248 -33.8499 18.5555 1.23893 20.5504 -22.0476 -28.9986 28.7808 3.42304e-006 1.98245e-006 -178.753 16.5542 105.624 -34.6107 -2.82872 -0.373278 36.6727 -1.5406 -0.536139 28.7808 1.41232e-005 1.7032e-005 0.374568 4.01559 -88.1621 18.7915 2.0998 3.90341 7.11668 2.26954 3.80549 -15.3744 0.829953 4.35892 4.63824 0.829953 4.3589 101.907 1.37443 -83.4167 0.0110388 45.0278 -80.5245 -4.82093 -32.5756 -5.32529 19.7218 -0.871646 -9.87989 -89.8614 -54.3419 79.8199 -5.11774 -20.9289 36.8434 54.0858 41.2213 -65.1841 0.728988 0.354466 12.0314 49.8175 -7.80057 0.812452 -33.6191 -5.4413 -7.97184 
40.7416 95.5673 -46.8814 -95.3521 -17.0729 -84.3591 -178.369 -5.62678 97.0577 -41.6991 6.36998 0.72202 35.1627 -15.5288 -15.9741 28.7808 3.42304e-006 1.98245e-006 -178.369 13.4333 104.694 -33.8623 -5.38085 -0.508715 37.1138 -0.583534 0.359564 28.7808 1.41232e-005 1.7032e-005 -0.0759463 4.00382 -88.1419 18.829 1.2109 4.14572 7.15212 1.39221 4.08953 -15.3297 -0.0910021 4.32161 4.68295 -0.0910058 4.3216 102.498 -2.07739 -81.1613 3.97082 50.8959 -80.444 -13.1707 -24.648 -25.2019 23.5635 0.282156 -3.60203 -90.0697 -51.8202 79.0082 -8.05842 -20.7066 38.0061 57.3876 35.1598 -70.5814 -8.4463 -1.06041 13.9007 51.4431 -12.8596 -12.5423 -32.8786 -5.72201 5.22915 
38.7548 96.06 -45.1386 -95.8716 -15.6174 -84.6572 -178.676 -1.89627 97.7078 -45.2468 -7.10991 0.0261284 45.0354 -7.12509 -6.42367 28.7808 3.42304e-006 1.98245e-006 -178.225 10.9536 103.554 -33.3931 -8.01966 -0.651367 37.3014 -0.310825 0.613202 28.7808 1.41232e-005 1.7032e-005 -0.229554 3.90999 -88.1602 19.0236 0.878116 4.16102 7.34638 1.06028 4.11886 -15.1354 -0.412043 4.23331 4.87723 -0.412068 4.23329 102.781 -2.81832 -80.0522 5.75916 55.912 -78.541 -17.8784 -22.7359 -36.5305 20.7359 0.874857 -0.393585 -93.2697 -49.2073 73.649 -10.5243 -19.9971 39.9556 61.8599 32.2752 -75.0201 -14.3125 -1.81583 11.9894 48.5205 -13.7406 -17.7468 -28.7438 -4.90335 10.052 
36.9378 96.611 -43.2141 -95.9515 -13.2515 -85.0743 -178.654 0.167227 98.5823 -44.4583 -15.4127 -0.514116 50.0535 -4.14429 -3.54121 28.7808 3.42304e-006 1.98245e-006 -178.13 8.5934 102.084 -32.2292 -10.0308 -0.749467 37.5518 -0.576472 0.360431 28.7808 1.41232e-005 1.7032e-005 -0.385445 3.7794 -88.1715 19.2921 0.497291 4.16013 7.61475 0.67944 4.13335 -14.8681 -0.77307 4.11171 5.14456 -0.773059 4.11171 103.005 -4.49644 -79.361 12.2426 61.3171 -81.006 -12.0127 -8.87703 -47.8383 26.8312 2.20293 4.06936 -95.1051 -46.6728 70.1342 -13.0524 -19.2289 40.1135 64.6959 29.2608 -78.0581 -20.586 -2.58517 11.2074 46.3559 -15.3141 -25.3418 -26.5449 -3.84147 17.0579 
35.2651 97.0869 -41.1906 -95.5539 -10.3735 -85.4997 -178.334 2.3063 99.6723 -42.375 -17.5261 -0.685423 50.4797 0.00703249 -0.47139 28.7808 3.42304e-006 1.98245e-006 -178.026 5.96361 100.304 -29.6368 -11.723 -0.819507 38.7966 -0.916256 0.0257969 28.7808 1.41232e-005 1.7032e-005 -0.552109 3.59513 -88.3531 19.6732 0.0947876 3.92065 7.99634 0.267121 3.91271 -14.4939 -1.08707 3.76837 5.51874 -1.08707 3.76836 103.058 -5.05675 -79.2134 15.3637 67.0644 -82.3779 -11.5117 -6.80621 -53.812 27.4698 2.18598 3.75144 -96.7743 -44.9448 66.992 -15.1548 -18.3716 39.3416 70.313 29.2318 -81.3134 -23.2093 -2.63793 9.50765 44.6828 -15.2922 -31.2224 -25.3291 -2.02318 22.8993 
33.6995 97.5437 -39.144 -95.2102 -7.54898 -85.9568 -177.741 2.99664 101.263 -37.2019 -14.7475 -0.58458 49.3597 1.30714 0.457411 28.7808 3.42304e-006 1.98245e-006 -178.154 3.49712 98.3746 -27.0885 -13.326 -0.877901 39.5162 -1.09054 -0.145872 28.7808 1.41232e-005 1.7032e-005 -0.762741 3.45398 -88.5279 19.9684 -0.46326 3.60865 8.29246 -0.304121 3.62553 -14.2083 -1.52584 3.30322 5.80435 -1.52584 3.30322 103.06 -5.76383 -79.2534 19.37 71.9419 -85.5018 -12.884 -6.86437 -57.9421 23.1137 1.96829 4.40782 -97.2914 -42.6318 65.3334 -18.8154 -16.6908 37.4051 70.7939 27.0191 -82.2693 -26.7004 -3.322 10.5312 42.5798 -14.4305 -36.5113 -23.9803 0.433409 27.5846 
32.2612 98.1717 -37.066 -94.4901 -4.13058 -86.578 -175.999 1.10574 102.742 -26.7989 -13.7859 -0.662785 46.8596 -1.09163 -1.46523 28.7808 3.42304e-006 1.98245e-006 -178.53 1.10133 95.8995 -23.2942 -15.4134 -0.944866 39.3487 -0.566762 0.31355 28.7808 1.41232e-005 1.7032e-005 -0.942179 3.29112 -88.661 20.3031 -1.03727 3.17811 8.62864 -0.896486 3.22063 -13.8856 -1.94416 2.72001 6.12711 -1.94418 2.72 102.995 -6.67505 -79.5256 25.1556 77.4231 -89.8302 -13.1215 -6.1376 -61.6246 21.7183 1.5026 2.64888 -97.6314 -39.9915 63.7451 -22.5292 -14.6533 35.4743 70.5279 25.9502 -82.4789 -27.8997 -3.49677 10.5899 40.1163 -13.1536 -42.3071 -22.6196 3.1375 33.2794 
30.9016 98.8079 -34.8864 -93.484 -0.318639 -87.5987 -172.272 -5.45089 103.966 -7.02118 -17.8727 -1.09038 39.9315 0.704775 -0.296526 28.7808 3.42304e-006 1.98245e-006 -179.325 -0.210993 93.0763 -20.3483 -18.2617 -1.06738 38.2132 -0.0825487 0.756704 28.7808 1.41232e-005 1.7032e-005 -1.07332 3.1089 -88.6654 20.6523 -1.55692 2.63858 8.97946 -1.43934 2.70448 -13.5489 -2.27782 2.04899 6.46371 -2.27783 2.04897 102.83 -7.8972 -80.1203 36.3989 82.7875 -99.4627 -14.0868 -5.97958 -64.6591 20.3608 0.877252 -0.215388 -97.7349 -37.1518 62.3694 -25.6244 -12.798 33.5764 74.0811 26.8612 -84.0059 -26.6266 -2.84171 8.31036 37.4171 -11.6806 -48.1735 -21.9616 5.62866 39.5131 
